<svg xmlns="http://www.w3.org/2000/svg">
  <symbol id="mastodon" viewBox="0 0 24 24">
    <path fill="currentColor" d="M20.94 14c-.28 1.41-2.44 2.96-4.97 3.26c-1.31.15-2.6.3-3.97.24c-2.25-.11-4-.54-4-.54v.62c.32 2.22 2.22 2.35 4.03 2.42c1.82.05 3.44-.46 3.44-.46l.08 1.65s-1.28.68-3.55.81c-1.25.07-2.81-.03-4.62-.5c-3.92-1.05-4.6-5.24-4.7-9.5l-.01-3.43c0-4.34 2.83-5.61 2.83-5.61C6.95 2.3 9.41 2 11.97 2h.06c2.56 0 5.02.3 6.47.96c0 0 2.83 1.27 2.83 5.61c0 0 .04 3.21-.39 5.43M18 8.91c0-1.08-.3-1.91-.85-2.56c-.56-.63-1.3-.96-2.23-.96c-1.06 0-1.87.41-2.42 1.23l-.5.88l-.5-.88c-.56-.82-1.36-1.23-2.43-1.23c-.92 0-1.66.33-2.23.96C6.29 7 6 7.83 6 8.91v5.26h2.1V9.06c0-1.06.45-1.62 1.36-1.62c1 0 1.5.65 1.5 1.93v2.79h2.07V9.37c0-1.28.5-1.93 1.51-1.93c.9 0 1.35.56 1.35 1.62v5.11H18z"/>
  </symbol>
  <symbol id="github" viewBox="0 0 24 24">
    <path fill="currentColor" d="M12 2A10 10 0 0 0 2 12c0 4.42 2.87 8.17 6.84 9.5c.5.08.66-.23.66-.5v-1.69c-2.77.6-3.36-1.34-3.36-1.34c-.46-1.16-1.11-1.47-1.11-1.47c-.91-.62.07-.6.07-.6c1 .07 1.53 1.03 1.53 1.03c.87 1.52 2.34 1.07 2.91.83c.09-.65.35-1.09.63-1.34c-2.22-.25-4.55-1.11-4.55-4.92c0-1.11.38-2 1.03-2.71c-.1-.25-.45-1.29.1-2.64c0 0 .84-.27 2.75 1.02c.79-.22 1.65-.33 2.5-.33c.85 0 1.71.11 2.5.33c1.91-1.29 2.75-1.02 2.75-1.02c.55 1.35.2 2.39.1 2.64c.65.71 1.03 1.6 1.03 2.71c0 3.82-2.34 4.66-4.57 4.91c.36.31.69.92.69 1.85V21c0 .27.16.59.67.5C19.14 20.16 22 16.42 22 12A10 10 0 0 0 12 2"/>
  </symbol>
  <symbol id="website" viewBox="0 0 512 512">
    <path fill="currentColor" d="M326.612 185.391c59.747 59.809 58.927 155.698.36 214.59c-.11.12-.24.25-.36.37l-67.2 67.2c-59.27 59.27-155.699 59.262-214.96 0c-59.27-59.26-59.27-155.7 0-214.96l37.106-37.106c9.84-9.84 26.786-3.3 27.294 10.606c.648 17.722 3.826 35.527 9.69 52.721c1.986 5.822.567 12.262-3.783 16.612l-13.087 13.087c-28.026 28.026-28.905 73.66-1.155 101.96c28.024 28.579 74.086 28.749 102.325.51l67.2-67.19c28.191-28.191 28.073-73.757 0-101.83c-3.701-3.694-7.429-6.564-10.341-8.569a16.037 16.037 0 0 1-6.947-12.606c-.396-10.567 3.348-21.456 11.698-29.806l21.054-21.055c5.521-5.521 14.182-6.199 20.584-1.731a152.482 152.482 0 0 1 20.522 17.197M467.547 44.449c-59.261-59.262-155.69-59.27-214.96 0l-67.2 67.2c-.12.12-.25.25-.36.37c-58.566 58.892-59.387 154.781.36 214.59a152.454 152.454 0 0 0 20.521 17.196c6.402 4.468 15.064 3.789 20.584-1.731l21.054-21.055c8.35-8.35 12.094-19.239 11.698-29.806a16.037 16.037 0 0 0-6.947-12.606c-2.912-2.005-6.64-4.875-10.341-8.569c-28.073-28.073-28.191-73.639 0-101.83l67.2-67.19c28.239-28.239 74.3-28.069 102.325.51c27.75 28.3 26.872 73.934-1.155 101.96l-13.087 13.087c-4.35 4.35-5.769 10.79-3.783 16.612c5.864 17.194 9.042 34.999 9.69 52.721c.509 13.906 17.454 20.446 27.294 10.606l37.106-37.106c59.271-59.259 59.271-155.699.001-214.959"/>
  </symbol>
  <symbol id="linkedin" width="16" height="16" fill="currentColor"  viewBox="0 0 16 16">
    <path fill="currentColor" d="M0 1.146C0 .513.526 0 1.175 0h13.65C15.474 0 16 .513 16 1.146v13.708c0 .633-.526 1.146-1.175 1.146H1.175C.526 16 0 15.487 0 14.854zm4.943 12.248V6.169H2.542v7.225zm-1.2-8.212c.837 0 1.358-.554 1.358-1.248-.015-.709-.52-1.248-1.342-1.248S2.4 3.226 2.4 3.934c0 .694.521 1.248 1.327 1.248zm4.908 8.212V9.359c0-.216.016-.432.08-.586.173-.431.568-.878 1.232-.878.869 0 1.216.662 1.216 1.634v3.865h2.401V9.25c0-2.22-1.184-3.252-2.764-3.252-1.274 0-1.845.7-2.165 1.193v.025h-.016l.016-.025V6.169h-2.4c.03.678 0 7.225 0 7.225z"/>
  </symbol>
  <symbol id="html" width="1em" height="1em" viewBox="0 0 256 256">
    <path fill="currentColor" d="M69.12 94.15L28.5 128l40.62 33.85a8 8 0 1 1-10.24 12.29l-48-40a8 8 0 0 1 0-12.29l48-40a8 8 0 0 1 10.24 12.3m176 27.7l-48-40a8 8 0 1 0-10.24 12.3L227.5 128l-40.62 33.85a8 8 0 1 0 10.24 12.29l48-40a8 8 0 0 0 0-12.29m-82.39-89.37a8 8 0 0 0-10.25 4.79l-64 176a8 8 0 0 0 4.79 10.26A8.14 8.14 0 0 0 96 224a8 8 0 0 0 7.52-5.27l64-176a8 8 0 0 0-4.79-10.25"/>
  </symbol>
  <symbol id="css" width="1em" height="1em" viewBox="0 0 16 16">
    <path fill="currentColor" fill-rule="evenodd" d="M14 4.5V14a2 2 0 0 1-2 2h-1v-1h1a1 1 0 0 0 1-1V4.5h-2A1.5 1.5 0 0 1 9.5 3V1H4a1 1 0 0 0-1 1v9H2V2a2 2 0 0 1 2-2h5.5zM3.397 14.841a1.13 1.13 0 0 0 .401.823q.195.162.478.252q.284.091.665.091q.507 0 .859-.158q.354-.158.539-.44q.187-.284.187-.656q0-.336-.134-.56a1 1 0 0 0-.375-.357a2 2 0 0 0-.566-.21l-.621-.144a1 1 0 0 1-.404-.176a.37.37 0 0 1-.144-.299q0-.234.185-.384q.188-.152.512-.152q.214 0 .37.068a.6.6 0 0 1 .246.181a.56.56 0 0 1 .12.258h.75a1.1 1.1 0 0 0-.2-.566a1.2 1.2 0 0 0-.5-.41a1.8 1.8 0 0 0-.78-.152q-.439 0-.776.15q-.337.149-.527.421q-.19.273-.19.639q0 .302.122.524q.124.223.352.367q.228.143.539.213l.618.144q.31.073.463.193a.39.39 0 0 1 .152.326a.5.5 0 0 1-.085.29a.56.56 0 0 1-.255.193q-.167.07-.413.07q-.175 0-.32-.04a.8.8 0 0 1-.248-.115a.58.58 0 0 1-.255-.384zM.806 13.693q0-.373.102-.633a.87.87 0 0 1 .302-.399a.8.8 0 0 1 .475-.137q.225 0 .398.097a.7.7 0 0 1 .272.26a.85.85 0 0 1 .12.381h.765v-.072a1.33 1.33 0 0 0-.466-.964a1.4 1.4 0 0 0-.489-.272a1.8 1.8 0 0 0-.606-.097q-.534 0-.911.223q-.375.222-.572.632q-.195.41-.196.979v.498q0 .568.193.976q.197.407.572.626q.375.217.914.217q.439 0 .785-.164t.55-.454a1.27 1.27 0 0 0 .226-.674v-.076h-.764a.8.8 0 0 1-.118.363a.7.7 0 0 1-.272.25a.9.9 0 0 1-.401.087a.85.85 0 0 1-.478-.132a.83.83 0 0 1-.299-.392a1.7 1.7 0 0 1-.102-.627zM6.78 15.29a1.2 1.2 0 0 1-.111-.449h.764a.58.58 0 0 0 .255.384q.106.073.25.114q.142.041.319.041q.245 0 .413-.07a.56.56 0 0 0 .255-.193a.5.5 0 0 0 .085-.29a.39.39 0 0 0-.153-.326q-.152-.12-.463-.193l-.618-.143a1.7 1.7 0 0 1-.539-.214a1 1 0 0 1-.351-.367a1.1 1.1 0 0 1-.123-.524q0-.366.19-.639q.19-.272.527-.422t.777-.149q.456 0 .779.152q.326.153.5.41q.18.255.2.566h-.75a.56.56 0 0 0-.12-.258a.6.6 0 0 0-.246-.181a.9.9 0 0 0-.37-.068q-.324 0-.512.152a.47.47 0 0 0-.184.384q0 .18.143.3a1 1 0 0 0 .404.175l.621.143q.326.075.566.211t.375.358t.135.56q0 .37-.188.656a1.2 1.2 0 0 1-.539.439q-.351.158-.858.158q-.381 0-.665-.09a1.4 1.4 0 0 1-.478-.252a1.1 1.1 0 0 1-.29-.375"/>
  </symbol>
  <symbol id="javascript" viewBox="0 0 16 16">
	  <path fill="currentColor" d="M0 1.75C0 .784.784 0 1.75 0h12.5C15.216 0 16 .784 16 1.75v2a.75.75 0 0 1-1.5 0v-2a.25.25 0 0 0-.25-.25H1.75a.25.25 0 0 0-.25.25v12.5c0 .138.112.25.25.25h13.5a.75.75 0 0 1 0 1.5H1.75A1.75 1.75 0 0 1 0 14.25zm8.25 4A.75.75 0 0 1 9 6.5v4c0 1.005-.276 1.758-.845 2.232c-.543.453-1.201.518-1.655.518a.75.75 0 0 1 0-1.5c.346 0 .563-.06.695-.17c.106-.088.305-.335.305-1.08v-4a.75.75 0 0 1 .75-.75m3.026.83c.418-.498 1.075-.83 1.974-.83c.835 0 1.465.286 1.89.735a.75.75 0 0 1-1.09 1.03c-.11-.116-.33-.265-.8-.265c-.5 0-.72.168-.826.295A.767.767 0 0 0 12.25 8c0 .104.043.3.174.455c.107.127.325.295.826.295c.076 0 .149.011.218.032c.663.094 1.164.39 1.506.798c.394.47.526 1.024.526 1.42c0 .396-.132.95-.526 1.42c-.418.498-1.075.83-1.974.83c-.835 0-1.465-.286-1.89-.735a.75.75 0 0 1 1.09-1.03c.11.116.33.265.8.265c.5 0 .72-.168.826-.295A.767.767 0 0 0 14 11c0-.104-.043-.3-.174-.455c-.107-.127-.325-.295-.826-.295a.748.748 0 0 1-.218-.032c-.663-.095-1.164-.39-1.506-.798A2.263 2.263 0 0 1 10.75 8c0-.396.132-.95.526-1.42" />
  </symbol>
  <symbol id="astro" viewBox="0 0 24 24">
    <path fill="currentColor" d="M8.358 20.162c-1.186-1.07-1.532-3.316-1.038-4.944c.856 1.026 2.043 1.352 3.272 1.535c1.897.283 3.76.177 5.522-.678c.202-.098.388-.229.608-.36c.166.473.209.95.151 1.437c-.14 1.185-.738 2.1-1.688 2.794c-.38.277-.782.525-1.175.787c-1.205.804-1.531 1.747-1.078 3.119l.044.148a3.158 3.158 0 0 1-1.407-1.188a3.31 3.31 0 0 1-.544-1.815c-.004-.32-.004-.642-.048-.958c-.106-.769-.472-1.113-1.161-1.133c-.707-.02-1.267.411-1.415 1.09c-.012.053-.028.104-.045.165zm-5.961-4.445s3.24-1.575 6.49-1.575l2.451-7.565c.092-.366.36-.614.662-.614c.302 0 .57.248.662.614l2.45 7.565c3.85 0 6.491 1.575 6.491 1.575L16.088.727C15.93.285 15.663 0 15.303 0H8.697c-.36 0-.615.285-.784.727z" />
  </symbol>
  <symbol id="database" viewBox="0 0 24 24">
    <path fill="currentColor" d="M12 20q-3.506 0-5.753-.893Q4 18.213 4 16.807V7q0-1.246 2.34-2.123Q8.678 4 12 4t5.66.877Q20 5.754 20 7v9.808q0 1.405-2.247 2.299Q15.506 20 12 20m0-11.11q2.148 0 4.33-.599q2.183-.599 2.612-1.304q-.41-.745-2.57-1.366T12 5q-2.179 0-4.366.599q-2.188.6-2.615 1.31q.408.75 2.576 1.366Q9.763 8.89 12 8.89m0 5.033q1.03 0 2.025-.1t1.901-.297q.907-.197 1.685-.491q.777-.295 1.389-.664V8.275q-.612.37-1.39.663q-.777.295-1.684.492q-.907.197-1.901.297t-2.025.1q-1.07 0-2.079-.11q-1.01-.11-1.907-.306q-.897-.198-1.662-.482Q5.587 8.644 5 8.275v4.096q.587.37 1.352.654t1.662.482q.898.197 1.907.306q1.01.11 2.079.11M12 19q1.285 0 2.443-.146t2.082-.415q.923-.268 1.57-.64q.645-.372.905-.805v-3.623q-.612.37-1.39.664q-.777.294-1.684.491q-.907.197-1.901.297t-2.025.1q-1.07 0-2.079-.11q-1.01-.11-1.907-.306q-.897-.197-1.662-.482q-.765-.285-1.352-.654V17q.26.452.903.812q.643.36 1.566.627q.923.269 2.085.415Q10.715 19 12 19" />
  </symbol>
  <symbol id="figma" viewBox="0 0 24 24">
	  <path fill="currentColor" d="M15.852 8.981h-4.588V0h4.588c2.476 0 4.49 2.014 4.49 4.49s-2.014 4.491-4.49 4.491M12.735 7.51h3.117c1.665 0 3.019-1.355 3.019-3.019s-1.355-3.019-3.019-3.019h-3.117zm0 1.471H8.148c-2.476 0-4.49-2.014-4.49-4.49S5.672 0 8.148 0h4.588v8.981zm-4.587-7.51c-1.665 0-3.019 1.355-3.019 3.019s1.354 3.02 3.019 3.02h3.117V1.471zm4.587 15.019H8.148c-2.476 0-4.49-2.014-4.49-4.49s2.014-4.49 4.49-4.49h4.588v8.98zM8.148 8.981c-1.665 0-3.019 1.355-3.019 3.019s1.355 3.019 3.019 3.019h3.117V8.981zM8.172 24c-2.489 0-4.515-2.014-4.515-4.49s2.014-4.49 4.49-4.49h4.588v4.441c0 2.503-2.047 4.539-4.563 4.539m-.024-7.51a3.023 3.023 0 0 0-3.019 3.019c0 1.665 1.365 3.019 3.044 3.019c1.705 0 3.093-1.376 3.093-3.068v-2.97zm7.704 0h-.098c-2.476 0-4.49-2.014-4.49-4.49s2.014-4.49 4.49-4.49h.098c2.476 0 4.49 2.014 4.49 4.49s-2.014 4.49-4.49 4.49m-.097-7.509c-1.665 0-3.019 1.355-3.019 3.019s1.355 3.019 3.019 3.019h.098c1.665 0 3.019-1.355 3.019-3.019s-1.355-3.019-3.019-3.019z" />
  </symbol>
  <symbol id="adobe" viewBox="0 0 32 32">
	  <path fill="currentColor" d="M32 15.464v1.073l-.031.172c-.052.469-.089.938-.161 1.396a11.616 11.616 0 0 1-1.568 4.193a11.807 11.807 0 0 1-4.865 4.484a11.233 11.233 0 0 1-3.745 1.12c-.292.036-.583.068-.87.099H9.515c-.057-.01-.109-.026-.167-.031a9.444 9.444 0 0 1-3.266-.797c-2.266-1.01-3.953-2.641-5.057-4.885a9.888 9.888 0 0 1-.932-3.161l-.094-.802v-1.042c.01-.057.026-.115.031-.172c.057-.995.26-1.969.615-2.901c.953-2.505 2.62-4.365 4.984-5.573A9.594 9.594 0 0 1 9.53 7.611c.672-.031 1.344 0 2.005.094a.243.243 0 0 0 .193-.063a11.857 11.857 0 0 1 3.276-2.411a11.323 11.323 0 0 1 3.766-1.13c.313-.036.625-.068.932-.099h.958c.063.01.13.021.188.026c.479.057.953.094 1.427.177c1.453.25 2.849.786 4.094 1.578a11.861 11.861 0 0 1 4.427 4.953c.583 1.198.958 2.49 1.109 3.813l.094.917zM14.104 8.531c.021.026.026.042.036.042c.656.333 1.286.719 1.88 1.156c.036.026.13.016.177-.01c1.625-1.052 3.396-1.411 5.292-1.073c1.859.339 3.375 1.281 4.531 2.792c1.307 1.708 1.807 3.641 1.448 5.786c-.245 1.438-.813 2.734-1.776 3.813c-1.76 1.974-3.964 2.792-6.557 2.448c-1.594-.214-2.974-.917-4.115-2.089c-1.464-1.5-2.938-2.995-4.406-4.495c-.198-.203-.411-.359-.693-.396a1.101 1.101 0 0 0-1.156.641c-.188.396-.161.849.25 1.26c1.635 1.635 3.255 3.286 4.891 4.922c.281.281.583.542.901.776c1.193.88 2.542 1.37 4 1.568c1.146.151 2.281.12 3.406-.141c2.151-.49 3.932-1.604 5.333-3.328a9.598 9.598 0 0 0 2.099-4.891a9.692 9.692 0 0 0-.083-3.151c-.328-1.693-1.031-3.208-2.161-4.5c-2.156-2.464-4.87-3.563-8.099-3.318A8.928 8.928 0 0 0 15.781 7.4a9.126 9.126 0 0 0-1.672 1.13zm-.786 17.188c-.047-.042-.089-.083-.135-.125c-.667-.641-1.339-1.281-2-1.932a.552.552 0 0 0-.427-.182c-.672.016-1.339.021-2-.13c-3.281-.755-5.188-4.385-3.979-7.578c.953-2.516 3.594-4.047 6.198-3.578c1.167.214 2.193.719 3.036 1.599c1.026 1.078 2.078 2.12 3.12 3.188c.234.24.505.354.833.307c.417-.063.755-.266.906-.688c.151-.417.078-.807-.229-1.125c-1.089-1.12-2.151-2.271-3.281-3.344c-2.198-2.083-4.786-2.703-7.651-1.818c-3.849 1.193-6.104 5.234-5.224 9.224c.802 3.641 3.932 6.188 7.589 6.193h3.068c.047 0 .099-.005.177-.01z" />
  </symbol>
  <symbol id="adobe_ai" viewBox="0 0 24 24">
	<path fill="currentColor" d="M10.53 10.73c-.1-.31-.19-.61-.29-.92c-.1-.31-.19-.6-.27-.89c-.08-.28-.15-.54-.22-.78h-.02c-.09.43-.2.86-.34 1.29c-.15.48-.3.98-.46 1.48c-.14.51-.29.98-.44 1.4h2.54c-.06-.211-.14-.46-.23-.721c-.09-.269-.18-.559-.27-.859M19.75.3H4.25C1.9.3 0 2.2 0 4.55v14.9c0 2.35 1.9 4.25 4.25 4.25h15.5c2.35 0 4.25-1.9 4.25-4.25V4.55C24 2.2 22.1.3 19.75.3M14.7 16.83h-2.091c-.069.01-.139-.04-.159-.11l-.82-2.38H7.91l-.76 2.35c-.02.09-.1.15-.19.141H5.08c-.11 0-.14-.061-.11-.18L8.19 7.38c.03-.1.06-.21.1-.33c.04-.21.06-.43.06-.65c-.01-.05.03-.1.08-.11h2.59c.08 0 .12.03.13.08l3.65 10.3c.03.109 0 .16-.1.16m3.4-.15c0 .11-.039.16-.129.16H16.01c-.1 0-.15-.061-.15-.16v-7.7c0-.1.041-.14.131-.14h1.98c.09 0 .129.05.129.14zm-.209-9.03a1.18 1.18 0 0 1-.911.35c-.33.01-.65-.12-.891-.35a1.3 1.3 0 0 1-.34-.92c-.01-.34.12-.66.359-.89c.242-.23.562-.35.892-.35c.391 0 .689.12.91.35c.22.24.34.56.33.89c.01.34-.11.67-.349.92" />
</symbol>
<symbol id="adobe_pr" viewBox="0 0 24 24">
	<path fill="currentColor" d="M10.15 8.42a2.93 2.93 0 0 0-1.18-.2a13.9 13.9 0 0 0-1.09.02v3.36l.39.02h.53c.39 0 .78-.06 1.15-.18c.32-.09.6-.28.82-.53c.21-.25.31-.59.31-1.03a1.45 1.45 0 0 0-.93-1.46M19.75.3H4.25A4.25 4.25 0 0 0 0 4.55v14.9c0 2.35 1.9 4.25 4.25 4.25h15.5c2.35 0 4.25-1.9 4.25-4.25V4.55C24 2.2 22.1.3 19.75.3m-7.09 11.65c-.4.56-.96.98-1.61 1.22c-.68.25-1.43.34-2.25.34l-.5-.01l-.43-.01v3.21a.12.12 0 0 1-.11.14H5.82c-.08 0-.12-.04-.12-.13V6.42c0-.07.03-.11.1-.11l.56-.01l.76-.02l.87-.02l.91-.01c.82 0 1.5.1 2.06.31c.5.17.96.45 1.34.82c.32.32.57.71.73 1.14c.15.42.23.85.23 1.3c0 .86-.2 1.57-.6 2.13m6.82-3.15v1.95c0 .08-.05.11-.16.11a4.35 4.35 0 0 0-1.92.37c-.19.09-.37.21-.51.37v5.1c0 .1-.04.14-.13.14h-1.97a.14.14 0 0 1-.16-.12v-5.58l-.01-.75l-.02-.78c0-.23-.02-.45-.04-.68a.1.1 0 0 1 .07-.11h1.78c.1 0 .18.07.2.16a3.03 3.03 0 0 1 .13.92c.3-.35.67-.64 1.08-.86a3.1 3.1 0 0 1 1.52-.39c.07-.01.13.04.14.11z" />
</symbol>
<symbol id="adobe_ps" viewBox="0 0 24 24">
	<path fill="currentColor" d="M9.85 8.42c-.37-.15-.77-.21-1.18-.2c-.26 0-.49 0-.68.01c-.2-.01-.34 0-.41.01v3.36c.14.01.27.02.39.02h.53c.39 0 .78-.06 1.15-.18c.32-.09.6-.28.82-.53c.21-.25.31-.59.31-1.03c.01-.31-.07-.62-.23-.89a1.45 1.45 0 0 0-.7-.57M19.75.3H4.25C1.9.3 0 2.2 0 4.55v14.899c0 2.35 1.9 4.25 4.25 4.25h15.5c2.35 0 4.25-1.9 4.25-4.25V4.55C24 2.2 22.1.3 19.75.3m-7.391 11.65c-.399.56-.959.98-1.609 1.22c-.68.25-1.43.34-2.25.34c-.24 0-.4 0-.5-.01s-.24-.01-.43-.01v3.209c.01.07-.04.131-.11.141H5.52c-.08 0-.12-.041-.12-.131V6.42c0-.07.03-.11.1-.11c.17 0 .33 0 .56-.01c.24-.01.49-.01.76-.02s.56-.01.87-.02c.31-.01.61-.01.91-.01c.82 0 1.5.1 2.06.31c.5.17.96.45 1.34.82c.32.32.57.71.73 1.14c.149.42.229.85.229 1.3c.001.86-.199 1.57-.6 2.13m7.091 3.89c-.28.4-.671.709-1.12.891c-.49.209-1.09.318-1.811.318c-.459 0-.91-.039-1.359-.129c-.35-.061-.7-.17-1.02-.32c-.07-.039-.121-.109-.111-.189v-1.74c0-.029.011-.07.041-.09c.029-.02.06-.01.09.01c.39.23.8.391 1.24.49c.379.1.779.15 1.18.15c.38 0 .65-.051.83-.141c.16-.07.27-.24.27-.42c0-.141-.08-.27-.24-.4c-.16-.129-.489-.279-.979-.471c-.51-.18-.979-.42-1.42-.719a2.625 2.625 0 0 1-.761-.85a2.158 2.158 0 0 1-.229-1.021c0-.43.12-.84.341-1.21c.25-.4.619-.72 1.049-.92c.469-.239 1.059-.349 1.769-.349c.41 0 .83.03 1.24.09c.3.04.59.12.86.23c.039.01.08.05.1.09c.01.04.02.08.02.12v1.63c0 .04-.02.08-.05.1c-.09.02-.14.02-.18 0c-.3-.16-.62-.27-.96-.34c-.37-.08-.74-.13-1.12-.13c-.2-.01-.41.02-.601.07c-.129.03-.24.1-.31.2c-.05.08-.08.18-.08.27s.04.18.101.26c.09.11.209.2.34.27c.229.12.47.23.709.33c.541.18 1.061.43 1.541.73c.33.209.6.49.789.83c.16.318.24.67.23 1.029c.011.471-.129.94-.389 1.331" />
</symbol>
<symbol id="adobe_xd" viewBox="0 0 24 24">
	<path fill="currentColor" d="M4.25.3C1.9.3 0 2.2 0 4.55v14.9c0 2.35 1.9 4.25 4.25 4.25h15.5c2.35 0 4.25-1.9 4.25-4.25V4.55C24 2.2 22.1.3 19.75.3Zm14.07 5.13h2.03c.05-.01.09.03.1.07v9.54c0 .18.01.38.02.6c.02.21.03.41.04.58c0 .07-.03.13-.1.16c-.52.22-1.07.38-1.63.48c-.51.09-1.02.14-1.54.14c-.74.01-1.48-.14-2.15-.45c-.63-.29-1.15-.77-1.51-1.36c-.37-.61-.55-1.37-.55-2.28a4.107 4.107 0 0 1 2.14-3.66c.7-.39 1.54-.58 2.53-.58c.05 0 .12 0 .21.01s.19.01.31.02V5.54c0-.07.03-.11.1-.11M3.68 6.3h2.27c.05 0 .1.01.14.02c.04.02.07.05.1.09c.19.43.41.86.64 1.29c.24.43.47.85.72 1.27c.24.42.46.84.67 1.27h.02c.21-.44.43-.87.65-1.29c.22-.42.45-.84.68-1.26c.23-.42.45-.85.67-1.26c.01-.04.03-.08.06-.1a.19.19 0 0 1 .13-.02h2.11c.05-.01.1.02.11.07c.01.01-.01.05-.03.07l-3 4.95l3.2 5.25c.02.04.03.08.02.12c-.01.04-.05.01-.11.02h-2.29c-.16 0-.27-.01-.34-.11c-.21-.42-.43-.83-.64-1.25c-.21-.41-.44-.83-.68-1.26c-.24-.43-.48-.86-.72-1.3h-.02c-.21.43-.44.86-.67 1.29c-.23.43-.46.86-.68 1.28c-.23.42-.46.85-.69 1.26c-.04.1-.12.11-.23.11h-2.2c-.04 0-.07.02-.07-.03a.14.14 0 0 1 .02-.11l3.11-5.1L3.6 6.44c-.03-.04-.04-.08-.02-.1c.02-.03.06-.04.1-.04m13.94 4.23c-.39 0-.78.08-1.13.26c-.34.17-.63.42-.85.74c-.22.32-.33.75-.33 1.27c-.01.35.05.7.17 1.03c.1.27.25.51.45.71c.19.18.42.32.68.4c.27.09.55.13.83.13c.15 0 .29-.01.42-.02c.13.01.24-.01.36-.05v-4.4a2.558 2.558 0 0 0-.6-.07" />
</symbol>
<symbol id="supabase" viewBox="0 0 24 24">
	<path fill="currentColor" d="M3.084 15.25c-1.664 0-2.6-1.912-1.58-3.226L10.21.806C10.794.054 12 .466 12 1.42v7.33h8.916c1.663 0 2.6 1.912 1.58 3.226L13.79 23.194c-.584.752-1.79.34-1.79-.613V15.25z" />
</symbol>
</svg>